<?xml version="1.0" encoding="utf-8"?><svg xmlns="http://www.w3.org/2000/svg" xmlns:xlink="http://www.w3.org/1999/xlink"><symbol viewBox="0 0 31.5 54.5" id="bottleA-icon" xmlns="http://www.w3.org/2000/svg"><path d="M8.5.5h14v9h-14v-9z"/><path d="M8 8.5h15a2.5 2.5 0 110 5H8a2.5 2.5 0 110-5z"/><path d="M8.5 12.5h14c2.209 0 8 8.791 8 11v26a4 4 0 01-4 4h-22a4 4 0 01-4-4v-26c0-2.209 5.791-11 8-11z"/><text font-family="Myriad Pro" font-size="11" x="12.5" y="39.34"><tspan font-family="Roboto">A</tspan></text></symbol><symbol viewBox="0 0 31.5 54.5" id="bottleB-icon" xmlns="http://www.w3.org/2000/svg"><path d="M8.5.5h14v9h-14v-9z"/><path d="M8 8.5h15a2.5 2.5 0 110 5H8a2.5 2.5 0 110-5z"/><path d="M8.5 12.5h14c2.209 0 8 8.791 8 11v26a4 4 0 01-4 4h-22a4 4 0 01-4-4v-26c0-2.209 5.791-11 8-11z"/><path fill-rule="evenodd" d="M11.5 15.5h8c2.209 0 8 8.791 8 11v20a4 4 0 01-4 4h-16a4 4 0 01-4-4v-20c0-2.209 5.791-11 8-11z"/><text font-family="Myriad Pro" font-size="11" x="12.5" y="39.34"><tspan font-family="Roboto">B</tspan></text></symbol><symbol viewBox="0 0 27.5 27.5" id="new-icon" xmlns="http://www.w3.org/2000/svg"><path fill-rule="evenodd" d="M13.5.5c7.179 0 13 5.82 13 13s-5.821 13-13 13c-7.18 0-13-5.82-13-13s5.82-13 13-13z"/><path fill-rule="evenodd" d="M13.5 7.5h1v11h-1v-11z"/><path fill-rule="evenodd" d="M19.5 12.5v1h-11v-1h11z"/></symbol><symbol viewBox="0 0 27.5 27.5" id="open-icon" xmlns="http://www.w3.org/2000/svg"><path fill-rule="evenodd" d="M13.5.5c7.179 0 13 5.82 13 13s-5.821 13-13 13c-7.18 0-13-5.82-13-13s5.82-13 13-13z"/><path fill-rule="evenodd" d="M8.5 11.5a2 2 0 11.001 3.999A2 2 0 018.5 11.5zm5 0a2 2 0 110 4 2 2 0 010-4zm5 0a2 2 0 11.001 3.999A2 2 0 0118.5 11.5z"/></symbol><symbol id="switch-icon" viewBox="0 0 33 33" xmlns="http://www.w3.org/2000/svg"><defs><filter id="efilter" x=".5" y=".5" width="32" height="32" filterUnits="userSpaceOnUse"><feOffset result="offset" dx=".5" dy=".866" in="SourceAlpha"/><feGaussianBlur result="blur" stdDeviation="1.732"/><feFlood result="flood" flood-opacity=".3"/><feComposite result="composite" operator="in" in2="blur"/><feBlend result="blend" in="SourceGraphic"/></filter><style>.ecls-2{stroke-width:1px;fill:none;stroke:#fff;fill-rule:evenodd}</style></defs><g filter="url(#efilter)"><circle id="eЭллипс_1" data-name="Эллипс 1" cx="15" cy="15" r="13.5" filter="none" stroke-width="1"/></g><use xlink:href="#eЭллипс_1" filter="none"/><path id="eФигура_4" data-name="Фигура 4" class="ecls-2" d="M1866 475v-1h14v1h-14z" transform="translate(-1857.5 -454.5)"/><path id="eФигура_5" data-name="Фигура 5" class="ecls-2" d="M1865 464h1v11h-1v-11z" transform="translate(-1857.5 -454.5)"/><path id="eФигура_1" data-name="Фигура 1" class="ecls-2" d="M1866.43 475.248l-.86-.5 4-7 .86.5z" transform="translate(-1857.5 -454.5)"/><path id="eФигура_2" data-name="Фигура 2" class="ecls-2" d="M1869.65 468.353l.7-.707 4 4-.7.707z" transform="translate(-1857.5 -454.5)"/><path id="eФигура_3" data-name="Фигура 3" class="ecls-2" d="M1874.42 472.265l-.84-.53 5-8 .84.53z" transform="translate(-1857.5 -454.5)"/></symbol><symbol viewBox="0 0 56.5 107.5" id="syringe-icon" xmlns="http://www.w3.org/2000/svg"><path fill-rule="evenodd" d="M7.5 4.5h48v1h-48v-1z"/><path fill-rule="evenodd" d="M7.5.5h1v5h-1v-5zm0 101h48v1h-48v-1z"/><path fill-rule="evenodd" d="M7.5 101.5h1v5h-1v-5zm47-96.001h1v96h-1v-96zM7.5 10.5h1v7h-1v-7zM6 7.5h4a1.5 1.5 0 010 3H6a1.5 1.5 0 110-3zm-4 10h12a1.5 1.5 0 010 3H2a1.5 1.5 0 110-3z"/><path fill-rule="evenodd" d="M12.5 19.5V51A3.5 3.5 0 019 54.5H7A3.5 3.5 0 013.5 51V19.5h9z"/><path fill-rule="evenodd" d="M7.5 23.5h1v26h-1v-26zM6.5 54.5h3v2h-3v-2z"/><path fill-rule="evenodd" d="M7.5 55.5h1v13h-1v-13zM5.5 34.5h4v1h-4v-1zm2 3h2v1h-2v-1zm-2 3h4v1h-4v-1zm2 3h2v1h-2v-1zm-2 3h4v1h-4v-1zm0-24h4v1h-4v-1zm2 3h2v1h-2v-1zm-2 3h4v1h-4v-1zm2 3h2v1h-2v-1z"/><path fill-rule="evenodd" d="M5.5 34.5h4v1h-4v-1zM4 70.5h8a2.5 2.5 0 110 5H4a2.5 2.5 0 110-5zm3.5 29c-4.142 0-7-.358-7-4.5V82c0-4.142 3.358-5.5 7.5-5.5 4.142 0 7.5 1.358 7.5 5.5v13c0 4.142-3.858 4.5-8 4.5z"/><path fill-rule="evenodd" d="M3.5 74.5h9v4h-9v-4z"/></symbol><symbol viewBox="0 0 52.5 32.5" id="valve-icon" xmlns="http://www.w3.org/2000/svg"><path fill-rule="evenodd" d="M.5.5h51v1H.5v-1zm16 5h19v26h-19v-26z"/><path fill-rule="evenodd" d="M34.5 5.5l17-5v26l-17 5v-26zm-8.5 5a3.5 3.5 0 110 7 3.5 3.5 0 010-7zm0 10a3.5 3.5 0 110 7 3.5 3.5 0 010-7z"/><path fill-rule="evenodd" d="M43 7.5a3.5 3.5 0 110 7 3.5 3.5 0 010-7zm0 10a3.5 3.5 0 110 7 3.5 3.5 0 010-7zm-25.5-12L.5.5v26l17 5v-26z"/><path fill-rule="evenodd" d="M9 7.5a3.5 3.5 0 110 7 3.5 3.5 0 010-7zm0 10a3.5 3.5 0 110 7 3.5 3.5 0 010-7z"/></symbol></svg>