<svg xmlns="http://www.w3.org/2000/svg" width="31.5" height="54.5"><path stroke="#12A9EB" fill="none" d="M8.5.5h14v9h-14v-9z"/><path stroke="#12A9EB" fill="none" d="M8 8.5h15a2.5 2.5 0 110 5H8a2.5 2.5 0 110-5z"/><path stroke="#12A9EB" fill="none" d="M8.5 12.5h14c2.209 0 8 8.791 8 11v26a4 4 0 01-4 4h-22a4 4 0 01-4-4v-26c0-2.209 5.791-11 8-11z"/><path fill-rule="evenodd" fill="#F4F4F7" d="M11.5 15.5h8c2.209 0 8 8.791 8 11v20a4 4 0 01-4 4h-16a4 4 0 01-4-4v-20c0-2.209 5.791-11 8-11z"/><text font-family="Myriad Pro" font-size="11" x="12.5" y="39.34"><tspan font-family="Roboto" fill="#2F3B4C">B</tspan></text></svg>