<svg xmlns="http://www.w3.org/2000/svg" width="56.5" height="107.5"><path fill-rule="evenodd" stroke="#009FE2" fill="#FFF" d="M7.5 4.5h48v1h-48v-1z"/><path fill-rule="evenodd" stroke="#009FE2" fill="#FFF" d="M7.5.5h1v5h-1v-5zm0 101h48v1h-48v-1z"/><path fill-rule="evenodd" stroke="#009FE2" fill="#FFF" d="M7.5 101.5h1v5h-1v-5zm47-96.001h1v96h-1v-96z"/><path fill-rule="evenodd" stroke="#2F3B4C" fill="#FFF" d="M7.5 10.5h1v7h-1v-7zM6 7.5h4a1.5 1.5 0 010 3H6a1.5 1.5 0 110-3zm-4 10h12a1.5 1.5 0 010 3H2a1.5 1.5 0 110-3z"/><path fill-rule="evenodd" stroke="#2F3B4C" fill="#FFF" d="M12.5 19.5V51A3.5 3.5 0 019 54.5H7A3.5 3.5 0 013.5 51V19.5h9z"/><path fill-rule="evenodd" fill="#2F3B4C" d="M7.5 23.5h1v26h-1v-26z"/><path fill-rule="evenodd" stroke="#2F3B4C" fill="#FFF" d="M6.5 54.5h3v2h-3v-2z"/><path fill-rule="evenodd" stroke="#2F3B4C" fill="#FFF" d="M7.5 55.5h1v13h-1v-13z"/><path stroke="#2F3B4C" fill="none" d="M5.5 34.5h4v1h-4v-1zm2 3h2v1h-2v-1zm-2 3h4v1h-4v-1zm2 3h2v1h-2v-1zm-2 3h4v1h-4v-1zm0-24h4v1h-4v-1zm2 3h2v1h-2v-1zm-2 3h4v1h-4v-1zm2 3h2v1h-2v-1z"/><path stroke="#2F3B4C" fill="none" d="M5.5 34.5h4v1h-4v-1z"/><path fill-rule="evenodd" stroke="#AFB0C3" fill="#FFF" d="M4 70.5h8a2.5 2.5 0 110 5H4a2.5 2.5 0 110-5zm3.5 29c-4.142 0-7-.358-7-4.5V82c0-4.142 3.358-5.5 7.5-5.5 4.142 0 7.5 1.358 7.5 5.5v13c0 4.142-3.858 4.5-8 4.5z"/><path fill-rule="evenodd" stroke="#AFB0C3" fill="#FFF" d="M3.5 74.5h9v4h-9v-4z"/></svg>