<svg xmlns="http://www.w3.org/2000/svg" width="52.5" height="32.5"><path stroke="#12A9EB" fill="none" d="M.5.5h51v1H.5v-1zm16 5h19v26h-19v-26z"/><path stroke="#12A9EB" fill="none" d="M34.5 5.5l17-5v26l-17 5v-26zm-8.5 5a3.5 3.5 0 110 7 3.5 3.5 0 010-7zm0 10a3.5 3.5 0 110 7 3.5 3.5 0 010-7z"/><path stroke="#12A9EB" fill="none" d="M43 7.5a3.5 3.5 0 110 7 3.5 3.5 0 010-7zm0 10a3.5 3.5 0 110 7 3.5 3.5 0 010-7zm-25.5-12L.5.5v26l17 5v-26z"/><path stroke="#12A9EB" fill="none" d="M9 7.5a3.5 3.5 0 110 7 3.5 3.5 0 010-7zm0 10a3.5 3.5 0 110 7 3.5 3.5 0 010-7z"/></svg>