<svg 
 xmlns="http://www.w3.org/2000/svg"
 xmlns:xlink="http://www.w3.org/1999/xlink"
 width="27.5px" height="27.5px">
<path fill-rule="evenodd"  stroke="rgb(175, 176, 195)" stroke-width="1px" stroke-linecap="butt" stroke-linejoin="miter" fill="rgb(255, 255, 255)"
 d="M13.500,0.500 C20.679,0.500 26.500,6.320 26.500,13.500 C26.500,20.680 20.679,26.500 13.500,26.500 C6.320,26.500 0.500,20.680 0.500,13.500 C0.500,6.320 6.320,0.500 13.500,0.500 Z"/>
<path fill-rule="evenodd"  stroke="rgb(175, 176, 195)" stroke-width="1px" stroke-linecap="butt" stroke-linejoin="miter" fill="rgb(255, 255, 255)"
 d="M8.500,11.500 C9.605,11.500 10.500,12.395 10.500,13.500 C10.500,14.605 9.605,15.500 8.500,15.500 C7.395,15.500 6.500,14.605 6.500,13.500 C6.500,12.395 7.395,11.500 8.500,11.500 Z"/>
<path fill-rule="evenodd"  stroke="rgb(175, 176, 195)" stroke-width="1px" stroke-linecap="butt" stroke-linejoin="miter" fill="rgb(255, 255, 255)"
 d="M13.500,11.500 C14.604,11.500 15.500,12.395 15.500,13.500 C15.500,14.605 14.604,15.500 13.500,15.500 C12.395,15.500 11.500,14.605 11.500,13.500 C11.500,12.395 12.395,11.500 13.500,11.500 Z"/>
<path fill-rule="evenodd"  stroke="rgb(175, 176, 195)" stroke-width="1px" stroke-linecap="butt" stroke-linejoin="miter" fill="rgb(255, 255, 255)"
 d="M18.500,11.500 C19.605,11.500 20.500,12.395 20.500,13.500 C20.500,14.605 19.605,15.500 18.500,15.500 C17.395,15.500 16.500,14.605 16.500,13.500 C16.500,12.395 17.395,11.500 18.500,11.500 Z"/>
</svg>