<svg 
 xmlns="http://www.w3.org/2000/svg"
 xmlns:xlink="http://www.w3.org/1999/xlink"
 width="52.5px" height="32.5px">
<path fill-rule="evenodd"  stroke="rgb(18, 169, 235)" stroke-width="1px" stroke-linecap="butt" stroke-linejoin="miter" fill="none"
 d="M0.500,0.500 L51.500,0.500 L51.500,1.500 L0.500,1.500 L0.500,0.500 Z"/>
<path fill-rule="evenodd"  stroke="rgb(18, 169, 235)" stroke-width="1px" stroke-linecap="butt" stroke-linejoin="miter" fill="none"
 d="M16.500,5.500 L35.500,5.500 L35.500,31.500 L16.500,31.500 L16.500,5.500 Z"/>
<path fill-rule="evenodd"  stroke="rgb(18, 169, 235)" stroke-width="1px" stroke-linecap="butt" stroke-linejoin="miter" fill="none"
 d="M34.500,5.500 L51.500,0.500 L51.500,26.500 L34.500,31.500 L34.500,5.500 Z"/>
<path fill-rule="evenodd"  stroke="rgb(18, 169, 235)" stroke-width="1px" stroke-linecap="butt" stroke-linejoin="miter" fill="none"
 d="M26.000,10.500 C27.933,10.500 29.500,12.067 29.500,14.000 C29.500,15.933 27.933,17.500 26.000,17.500 C24.067,17.500 22.500,15.933 22.500,14.000 C22.500,12.067 24.067,10.500 26.000,10.500 Z"/>
<path fill-rule="evenodd"  stroke="rgb(18, 169, 235)" stroke-width="1px" stroke-linecap="butt" stroke-linejoin="miter" fill="none"
 d="M26.000,20.500 C27.933,20.500 29.500,22.067 29.500,24.000 C29.500,25.933 27.933,27.500 26.000,27.500 C24.067,27.500 22.500,25.933 22.500,24.000 C22.500,22.067 24.067,20.500 26.000,20.500 Z"/>
<path fill-rule="evenodd"  stroke="rgb(18, 169, 235)" stroke-width="1px" stroke-linecap="butt" stroke-linejoin="miter" fill="none"
 d="M43.000,7.500 C44.933,7.500 46.500,9.067 46.500,11.000 C46.500,12.933 44.933,14.500 43.000,14.500 C41.067,14.500 39.500,12.933 39.500,11.000 C39.500,9.067 41.067,7.500 43.000,7.500 Z"/>
<path fill-rule="evenodd"  stroke="rgb(18, 169, 235)" stroke-width="1px" stroke-linecap="butt" stroke-linejoin="miter" fill="none"
 d="M43.000,17.500 C44.933,17.500 46.500,19.067 46.500,21.000 C46.500,22.933 44.933,24.500 43.000,24.500 C41.067,24.500 39.500,22.933 39.500,21.000 C39.500,19.067 41.067,17.500 43.000,17.500 Z"/>
<path fill-rule="evenodd"  stroke="rgb(18, 169, 235)" stroke-width="1px" stroke-linecap="butt" stroke-linejoin="miter" fill="none"
 d="M17.500,5.500 L0.500,0.500 L0.500,26.500 L17.500,31.500 L17.500,5.500 Z"/>
<path fill-rule="evenodd"  stroke="rgb(18, 169, 235)" stroke-width="1px" stroke-linecap="butt" stroke-linejoin="miter" fill="none"
 d="M9.000,7.500 C10.933,7.500 12.500,9.067 12.500,11.000 C12.500,12.933 10.933,14.500 9.000,14.500 C7.067,14.500 5.500,12.933 5.500,11.000 C5.500,9.067 7.067,7.500 9.000,7.500 Z"/>
<path fill-rule="evenodd"  stroke="rgb(18, 169, 235)" stroke-width="1px" stroke-linecap="butt" stroke-linejoin="miter" fill="none"
 d="M9.000,17.500 C10.933,17.500 12.500,19.067 12.500,21.000 C12.500,22.933 10.933,24.500 9.000,24.500 C7.067,24.500 5.500,22.933 5.500,21.000 C5.500,19.067 7.067,17.500 9.000,17.500 Z"/>
</svg>